<svg id="Calque_1" data-name="Calque 1" xmlns="http://www.w3.org/2000/svg" viewBox="0 0 576 576"><defs><style>.cls-1,.cls-2{fill:#e4e2dd;}.cls-2{stroke:#2b475c;stroke-miterlimit:10;}.cls-3{fill:#759181;}.cls-4{font-size:16.93px;}.cls-4,.cls-5{fill:#5e8a75;font-family:PlantagenetCherokee, Plantagenet Cherokee;}.cls-5{font-size:17.02px;}.cls-6{font-size:85.2px;fill:#2b475c;font-family:Copperplate;}</style></defs><title>Favicon</title><rect class="cls-1" width="576" height="576"/><circle class="cls-2" cx="288" cy="288" r="268.37"/><path class="cls-3" d="M357.81,346c-.5,14.05,3.59,26.38,14.19,36.22,2.21,2.06,4.94,1.43,7.49,1.44q39.35.08,78.69,0c1.75,0,3.5,0,5.24.12a2.83,2.83,0,0,1,2.86,3c.08,1.93-1.11,2.71-2.88,2.78-1.31.06-2.62.07-3.93.07H94.2c-1.09,0-2.18,0-3.28,0-2.12,0-3.23-.95-3.18-3.17s1.46-2.93,3.45-2.93h8.5c-10.83-17.88-5.31-36.58-6.16-54.55-.77-16.43-.13-16.48,16.08-16.51,14,0,28,.17,42-.07,4.83-.09,6.78,1.44,6.47,6.36s-.07,9.95-.07,14.71c12.83,3.23,17.66,7.65,17.13,15.17-.49,6.89-5.75,11.09-16.42,12.72-1.54,7.08-1.42,15.08-7.88,20.74,2.56,2.2,5,1.44,7.25,1.45q54.76.09,109.52.05c9.29,0,20.33-10.34,21.12-19.86.38-4.57.29-9.19.95-13.71.62-4.19-.89-5.51-4.88-5.44-8.3.14-16.61,0-24.92,0q-29.17,0-58.36,0c-8.46,0-15.93-2.52-21.63-9.11a20.32,20.32,0,0,1-5.29-13.73c0-52-.06-104,.07-156.08,0-13.89,10.18-22.69,25.81-22.74,30.38-.1,60.77,0,91.15,0q78.36,0,156.73,0c5.76,0,11.41.53,16.46,3.5C471.84,150.51,476,156.47,476,165c0,52.46,0,104.92-.07,157.38,0,13-10.71,22.18-25.7,22.24-28.2.1-56.39,0-84.59.06C363.08,344.72,360.37,344.05,357.81,346Zm111.7-48.53c.14-2.47.34-4.4.34-6.32q0-61,0-122c0-13.45-6.6-20-20.11-20q-124.26,0-248.53,0c-14.15,0-20.44,6.3-20.44,20.34q0,60.65.05,121.31c0,2.12-.59,4.37,1,6.69Zm-287.8,7a11.3,11.3,0,0,0-.72,2.37c-.06,4.59-.17,9.18-.06,13.76.2,8.1,4.79,14,12.61,16.4a37.09,37.09,0,0,0,11,1.32q68.18,0,136.35,0,53.76,0,107.5,0c8.78,0,17-2.2,20.54-11.06,2.85-7.1,2.27-14.89,1.18-22.78ZM99.9,318.92c0,17.22-.56,33.58.22,49.87.43,9,8,14.63,17.14,14.84,4.81.12,9.62.06,14.42,0,11.84-.12,19.66-7,20.07-18.74.47-13.75.1-27.53.19-41.29,0-3.26-1.16-4.75-4.6-4.73C131.85,319,116.35,318.92,99.9,318.92Zm195.61,47.69h58.15c-.76-5.29-1.93-10-2-14.65-.06-6.79-3.29-8.27-9.45-7.95-9.34.47-18.72.09-28.08.1C294.39,344.13,293,345.72,295.51,366.61Zm67.42,17.23c-3.25-7.6-7.05-11.73-15.8-11.24-15.65.87-31.39.21-47.09.21-8.48,0-10.72,1.77-13.57,11ZM157.45,348.27c.26,2.58-1,6.79,4,6.8,4.08,0,7.17-2.14,7.33-6.64s-2.2-6.94-6.6-7.23C157.25,340.87,157.42,344.45,157.45,348.27Z"/><path class="cls-3" d="M120.58,288.32c0-4.8,0-9.61,0-14.42,0-2.07.36-4.21,2.89-4.39s3.35,1.74,3.36,3.91q.08,14.74,0,29.5c0,2.21-1.16,3.88-3.62,3.7-2.3-.16-2.58-2.06-2.6-3.87C120.56,297.94,120.59,293.13,120.58,288.32Z"/><path class="cls-3" d="M107.73,290.52c0-1.73-.07-3.47,0-5.2.13-2.37,0-5.29,3.39-5.17,2.57.09,3.42,2.44,3.45,4.75,0,4.33.09,8.67-.18,13-.11,1.93-.94,4.15-3.4,4s-3.09-2.17-3.21-4.23c-.13-2.38,0-4.77,0-7.15Z"/><path class="cls-3" d="M138.87,291.14c0,2.4.07,4.8,0,7.2-.06,1.87-.69,3.7-2.9,3.57a3.44,3.44,0,0,1-3.21-3.56c-.14-4.8-.15-9.6-.07-14.39,0-2.13.89-4,3.43-3.83,2.16.16,2.71,1.94,2.75,3.82C138.9,286.34,138.87,288.74,138.87,291.14Z"/><path class="cls-1" d="M469.51,297.43H181.85c-1.61-2.32-1-4.57-1-6.69q-.08-60.66-.05-121.31c0-14,6.29-20.34,20.44-20.34q124.26,0,248.53,0c13.51,0,20.1,6.6,20.11,20q0,61,0,122C469.85,293,469.65,295,469.51,297.43Z"/><path class="cls-1" d="M181.71,304.47H470.12c1.09,7.89,1.67,15.68-1.18,22.78-3.55,8.86-11.76,11.05-20.54,11.06q-53.74.07-107.5,0-68.17,0-136.35,0a37.09,37.09,0,0,1-11-1.32c-7.82-2.37-12.41-8.3-12.61-16.4-.11-4.58,0-9.17.06-13.76A11.3,11.3,0,0,1,181.71,304.47Zm155.46,15a11.75,11.75,0,0,0-11.38-11.93c-6.09-.22-12,5.41-12,11.47a11.94,11.94,0,0,0,11.63,11.82C332.13,331,337,326.19,337.17,319.43Z"/><path class="cls-1" d="M99.9,318.92c16.45,0,31.95.06,47.44,0,3.44,0,4.62,1.47,4.6,4.73-.09,13.76.28,27.54-.19,41.29-.41,11.73-8.23,18.62-20.07,18.74-4.8.05-9.61.11-14.42,0-9.14-.21-16.71-5.82-17.14-14.84C99.34,352.5,99.9,336.14,99.9,318.92Z"/><path class="cls-1" d="M337.17,319.43c-.13,6.76-5,11.52-11.72,11.36A11.94,11.94,0,0,1,313.82,319c0-6.06,5.88-11.69,12-11.47A11.75,11.75,0,0,1,337.17,319.43Zm-5.89,0c-.61-3.09-2.39-5.3-5.63-5.34a5,5,0,0,0-5.33,5.44c.06,3.21,2.09,5.41,5.44,5.37S330.83,322.75,331.28,319.44Z"/><path class="cls-1" d="M331.28,319.44c-.45,3.31-2.23,5.44-5.52,5.47s-5.38-2.16-5.44-5.37a5,5,0,0,1,5.33-5.44C328.89,314.14,330.67,316.35,331.28,319.44Z"/><text class="cls-4" transform="translate(304.93 317.8)">O</text><text class="cls-5" transform="translate(318.61 317.8)">G</text><text class="cls-6" transform="translate(87.74 447.38)">OptiGess</text></svg>